<svg width="85" height="26" viewBox="0 0 85 26" fill="none" xmlns="http://www.w3.org/2000/svg">
<path fill-rule="evenodd" clip-rule="evenodd" d="M84.2734 25.5V0.5H58.2044V25.5H84.2734ZM78.3327 7.67966C76.3246 6.52568 74.3156 5.92733 72.4351 5.92733C70.427 5.92733 68.7597 6.56838 67.478 7.85048C66.1532 9.08987 65.4699 10.6282 65.4699 12.5514C65.4699 14.3886 66.1532 15.9697 67.4358 17.2527C68.8028 18.4485 70.427 19.0473 72.3929 19.0473C74.4869 19.0473 76.5381 18.4062 78.5467 17.1237V19.8164C76.6658 20.8418 74.5718 21.3548 72.2643 21.3548C70.2985 21.3548 68.6743 20.9704 67.3063 20.2012C65.9973 19.404 64.8984 18.3047 64.1015 16.9955C63.3323 15.5435 62.9048 14.0901 62.9048 12.5514C62.9048 9.98716 63.8021 7.89319 65.6398 6.18357C67.4353 4.47396 69.6579 3.57667 72.2643 3.57667C74.1443 3.57667 76.1529 4.0469 78.3322 5.0296V7.67966H78.3327ZM55.299 0.5H29.23V25.5H55.299V0.5ZM37.2215 4.21772H41.7516C43.2045 4.21772 44.3162 4.38855 45.1272 4.77336C45.9395 5.20088 46.5374 5.71335 46.9227 6.35485C47.3493 7.03861 47.5637 7.80778 47.5637 8.70506C47.5637 10.4142 46.7087 11.6109 44.9136 12.3378C46.1957 12.5514 47.2212 13.0643 47.9481 13.9189C48.6741 14.688 49.0166 15.6712 49.0589 16.782C49.0166 17.637 48.8026 18.4485 48.3756 19.1327C47.9049 19.8164 47.2639 20.3725 46.3666 20.8423C45.4693 21.2698 44.4007 21.4833 43.0759 21.4833H37.2215V4.21772Z" fill="#9CA3AF"/>
<path fill-rule="evenodd" clip-rule="evenodd" d="M41.3237 11.6114C42.6481 11.6114 43.5885 11.3551 44.1442 10.8849C44.6998 10.3293 44.9983 9.68822 44.9983 8.87634C44.9983 7.25259 43.9306 6.39756 41.8362 6.39756H39.7V11.6114H41.3237ZM42.0075 13.8335H39.7V19.2603H42.1788C43.3323 19.2603 44.2727 19.1754 44.8706 19.0041C45.4263 18.7047 45.8111 18.3631 46.0673 17.9787C46.3236 17.5512 46.4948 17.0814 46.4948 16.5685C46.4517 16.0555 46.3236 15.5849 46.0242 15.1583C45.7679 14.6876 45.3409 14.3459 44.7421 14.132C44.1873 13.9189 43.2469 13.7907 42.0075 13.8335ZM26.238 0.5H0.168945V25.5H26.238V0.5ZM8.11822 21.4829V4.21772H12.6483C14.1012 4.21772 15.1698 4.38855 15.9816 4.77336C16.7935 5.15772 17.4346 5.71336 17.8194 6.39711C18.2464 7.03816 18.4604 7.80733 18.5031 8.70461C18.4604 10.4138 17.6058 11.6105 15.8108 12.3796C17.1356 12.5936 18.1183 13.1061 18.8452 13.918C19.5717 14.6871 19.9565 15.6703 19.9565 16.7811C19.9565 17.6784 19.743 18.4907 19.2727 19.1318C18.8025 19.8578 18.1615 20.4139 17.3069 20.8414C16.4096 21.2689 15.2983 21.4824 13.9735 21.4824H8.11822V21.4829Z" fill="#9CA3AF"/>
<path fill-rule="evenodd" clip-rule="evenodd" d="M12.7334 6.39758H10.5967V11.6114H12.2631C13.5452 11.6114 14.4852 11.3551 15.0413 10.8849C15.5965 10.372 15.8959 9.68824 15.8959 8.91907C15.8954 7.25217 14.8273 6.39758 12.7334 6.39758ZM12.9042 13.8335H10.5967V19.2604H13.0323C14.3144 19.2604 15.2544 19.1754 15.81 19.0041C16.2803 18.7906 16.6646 18.4912 16.9636 18.0637C17.2203 17.5939 17.3484 17.1232 17.3911 16.5685C17.3484 15.9697 17.1771 15.4999 16.9209 15.1583C16.6276 14.6851 16.1717 14.3353 15.6388 14.1747C15.0409 13.9189 14.1009 13.8335 12.9042 13.8335Z" fill="#9CA3AF"/>
</svg>
