<svg width="100" height="40" viewBox="0 0 100 40" fill="none" xmlns="http://www.w3.org/2000/svg">
<path fill-rule="evenodd" clip-rule="evenodd" d="M5.0077 25.226C5.42146 25.0188 5.52446 24.6062 5.52446 24.1925V14.9974C5.52446 14.6872 5.42087 14.1705 5.0077 13.9639H9.34774C11.3106 13.9639 13.2734 14.7908 13.2734 17.0632C13.2734 18.1997 12.2405 19.1297 11.104 19.3363C12.7573 19.3363 14.2034 20.2662 14.2034 22.0224C14.2034 24.6056 11.6202 25.2254 9.76032 25.2254H5.0077V25.226ZM8.52081 14.9974H7.79806V18.9231H8.31423C9.65732 18.9231 10.8974 18.5099 10.8974 16.9596C10.8974 15.4106 9.86391 14.9974 8.52081 14.9974ZM8.83098 19.9566H7.79806V24.0895C8.31423 24.1925 8.83098 24.1925 9.34774 24.1925C10.4842 24.1925 11.6208 23.7799 11.6208 22.023C11.6208 20.3698 10.2777 19.9566 8.83098 19.9566ZM18.5434 14.9974H18.0266V18.9231H18.5434C19.7835 18.9231 20.7134 18.1997 20.7134 16.8566C20.7134 15.5136 19.7829 14.9974 18.5434 14.9974ZM24.2259 25.3296C23.8122 25.3296 23.296 25.3296 22.8834 25.1224C22.1601 24.9152 21.1266 23.2625 20.7134 22.5392C19.9901 21.5057 19.4739 19.956 18.0272 19.956V24.1919C18.0272 24.6056 18.1302 25.0182 18.544 25.2254H15.1345C15.5476 25.0182 15.6512 24.6056 15.6512 24.1919V14.9974C15.6512 14.6872 15.5476 14.1705 15.1345 13.9639H19.2673C21.023 13.9639 23.193 14.6872 23.193 16.8566C23.193 18.6135 21.7463 19.5428 20.0931 19.5428C22.3667 19.5428 23.8122 25.0182 26.396 25.0182C25.6908 25.2232 24.9603 25.328 24.2259 25.3296ZM26.499 25.226C26.8085 25.123 27.1187 24.7092 27.1187 24.1925V14.9974C27.1187 14.4806 26.8085 14.1705 26.499 13.9639H30.0115C29.7019 14.171 29.3917 14.4806 29.3917 14.9974V24.1925C29.3917 24.7092 29.7019 25.123 30.0115 25.226H26.499ZM34.0414 25.226C34.3515 25.0188 34.5581 24.6062 34.5581 24.1925V15.307H32.0785C31.4587 15.307 30.8384 15.41 30.3222 15.6171L31.1486 13.9639H39.3113C39.9311 13.9639 40.6544 13.9639 41.2742 13.8603C40.964 14.6872 40.0347 15.307 39.5179 15.307H36.8317V24.1925C36.8317 24.6062 37.0383 25.0188 37.452 25.226H34.0414ZM41.6867 25.226C41.9969 25.123 42.3071 24.7092 42.3071 24.1925V14.9974C42.3071 14.4806 41.9969 14.1705 41.6867 13.9639H45.1999C44.8897 14.171 44.5795 14.4806 44.5795 14.9974V24.1925C44.5795 24.7092 44.8897 25.123 45.1999 25.226H41.6867ZM51.9165 22.6428C51.9165 20.5769 46.8531 20.0602 46.8531 16.6506C46.8531 14.5842 48.8166 13.8609 50.5734 13.8609C51.3997 13.8609 52.5363 13.9645 53.2596 14.2746L53.3626 16.4446C52.95 15.5147 51.8129 14.7914 50.7794 14.7914C49.9531 14.7914 49.1267 15.2046 49.1267 16.1345C49.1267 18.3039 54.2931 18.9243 54.2931 22.1266C54.2931 24.4002 52.2267 25.4331 50.1602 25.4331C49.0243 25.4331 47.577 25.226 46.6471 24.6068C46.6471 24.193 46.5435 23.7805 46.5435 23.4697C46.5435 22.9541 46.6471 22.5404 46.7501 22.0236C47.2669 23.3667 48.4034 24.4002 49.9531 24.4002C50.986 24.399 51.9165 23.8829 51.9165 22.6428ZM62.6607 25.226C62.8678 25.123 63.1774 24.7092 63.1774 24.1925V20.0596C62.5577 19.9566 61.7313 19.9566 60.8008 19.9566C59.7685 19.9566 58.941 19.9566 58.3218 20.0596V24.1925C58.3218 24.7092 58.6314 25.123 58.8386 25.226H55.532C55.7392 25.123 56.0488 24.7092 56.0488 24.1925V14.9974C56.0488 14.4806 55.7392 14.1705 55.532 13.9639H58.8386C58.6314 14.171 58.3218 14.4806 58.3218 14.9974V18.8201C58.9416 18.8201 59.7691 18.9237 60.8008 18.9237C61.7313 18.9237 62.5577 18.8201 63.1774 18.8201V14.9974C63.1774 14.4806 62.8678 14.1705 62.6607 13.9639H65.9672C65.6576 14.171 65.4504 14.4806 65.4504 14.9974V24.1925C65.4504 24.7092 65.6576 25.123 65.9672 25.226H62.6607ZM9.34774 39.7946C9.45074 39.6904 9.55432 39.5874 9.55432 39.3808C9.55432 39.3808 9.45074 39.1737 9.45074 38.9671C9.45074 38.9671 8.52081 36.4881 8.41781 36.1779H4.28495C4.18136 36.4875 3.14844 38.9671 3.14844 38.9671C3.04485 39.2778 2.94185 39.3808 2.94185 39.485C2.94185 39.691 3.14844 39.691 3.25202 39.7946H0.979004C1.30371 39.5728 1.58399 39.2921 1.80534 38.9671L5.42145 29.3588C5.52504 29.3588 5.52504 29.2558 5.52504 29.2558C5.52504 28.9451 5.31846 28.7391 5.11129 28.6349H8.00464L11.7238 38.9665C11.9309 39.3802 12.2405 39.5874 12.5507 39.794H9.34774V39.7946ZM6.35138 30.7019L4.69812 35.042C5.21487 35.145 5.73163 35.145 6.24779 35.145C6.76396 35.145 7.3843 35.145 8.00406 35.042L6.35138 30.7019ZM13.0668 39.7946C13.377 39.6904 13.6872 39.2778 13.6872 38.7611V29.566C13.6872 29.0492 13.377 28.7397 13.0668 28.6355H16.58C16.2698 28.7397 15.9596 29.0492 15.9596 29.566V38.7617C15.9596 39.2784 16.2698 39.691 16.58 39.7952H13.0668V39.7946ZM21.7463 29.566H21.2296V33.4923H21.7463C22.9864 33.4923 23.9158 32.8714 23.9158 31.4259C23.9158 30.0822 22.9858 29.566 21.7463 29.566ZM27.7385 39.8976C27.2223 39.8976 26.8085 39.8976 26.3954 39.7946C25.6726 39.485 24.5355 37.8312 24.1224 37.1072C23.502 36.0749 22.6757 34.5252 21.2296 34.5252V38.7611C21.2296 39.1737 21.3326 39.5874 21.7463 39.7946H18.3368C18.75 39.5874 18.8536 39.1737 18.8536 38.7611V29.566C18.8536 29.2564 18.75 28.7397 18.3368 28.6355H22.4697C24.2259 28.6355 26.396 29.2564 26.396 31.4259C26.396 33.1815 24.7427 34.112 23.6062 34.112C25.9828 34.2162 27.4289 39.588 29.8055 39.588C29.1852 39.7946 28.4618 39.8976 27.7385 39.8976ZM41.6867 29.6684L38.2772 39.7946C37.9671 39.7946 37.6569 39.6904 37.5539 39.5874C37.2443 39.2778 36.7275 37.9347 36.521 37.418L34.9707 33.4917L32.6977 39.7946H31.6647L27.8415 29.6684C27.7827 29.4484 27.6789 29.2429 27.5367 29.065C27.3945 28.8871 27.2169 28.7406 27.0151 28.6349H30.3211C30.2175 28.7391 30.1145 28.8421 30.1145 29.0487C30.1145 29.1517 30.1145 29.3582 30.2175 29.4612L32.6971 36.1779L35.2803 28.6349L38.173 35.8677L40.4461 29.2552C40.4461 29.1511 40.5497 29.0481 40.5497 28.9445C40.5497 28.7385 40.4461 28.7385 40.3425 28.6349H42.5125C42.311 28.7408 42.1335 28.8873 41.9914 29.0652C41.8493 29.2431 41.7456 29.4485 41.6867 29.6684ZM45.7166 30.7019L44.0639 35.042C44.5801 35.145 45.0969 35.145 45.6136 35.145C46.1304 35.145 46.7501 35.145 47.2669 35.042L45.7166 30.7019ZM48.6094 39.7946C48.8166 39.6904 48.8166 39.5874 48.8166 39.3808C48.8166 39.3808 48.8166 39.1737 48.713 38.9671C48.713 38.9671 47.8861 36.4881 47.6795 36.1779H43.6502C43.5472 36.4875 42.5137 38.9671 42.5137 38.9671C42.4101 39.2778 42.3071 39.3808 42.3071 39.485C42.3071 39.691 42.5137 39.691 42.6167 39.7946H40.3437C40.6538 39.5874 40.964 39.2778 41.067 38.9671L44.7867 29.3588L44.8903 29.2558C44.8903 28.9451 44.6837 28.7391 44.4771 28.6349H47.3699L51.089 38.9665C51.2962 39.3802 51.6057 39.5874 51.9165 39.794H48.6094V39.7946ZM58.7356 29.7714L56.1524 34.421V38.7611C56.1524 39.1737 56.2554 39.5874 56.5661 39.7946H53.362C53.6716 39.5874 53.7758 39.1737 53.7758 38.7611V34.421L51.5022 30.7019C51.295 30.3923 50.3662 28.7391 49.1256 28.7391C49.4351 28.6349 50.4687 28.4283 51.0884 28.4283C52.2255 28.4283 52.7423 28.5325 53.362 29.5654L55.5314 32.9749C55.7386 32.6642 57.3913 29.6684 57.3913 29.6684C57.5985 29.3588 57.702 29.0487 57.702 28.9451C57.702 28.8421 57.702 28.7391 57.4949 28.6355H59.8715C59.4583 28.8421 59.0457 29.3588 58.7356 29.7714ZM64.9343 37.2114C64.9343 35.145 59.9745 34.6282 59.9745 31.2187C59.9745 29.1523 61.9379 28.4283 63.6936 28.4283C64.5199 28.4283 65.657 28.5325 66.381 28.8421L66.4839 31.0115C66.0702 30.0822 64.9343 29.3588 63.9008 29.3588C63.0744 29.3588 62.2481 29.7714 62.2481 30.7019C62.2481 32.8714 67.3103 33.4923 67.3103 36.6946C67.3103 39.0712 65.3474 40 63.281 40C62.1451 40 60.6978 39.794 59.7685 39.1737C59.7685 38.7611 59.6643 38.4515 59.6643 38.0377C59.6643 37.521 59.7685 37.1072 59.7685 36.6946C60.3882 37.9347 61.5242 38.9671 62.9714 38.9671C64.1079 38.9671 64.9343 38.4515 64.9343 37.2114ZM95.2074 6.21489C93.2446 8.07474 89.1117 9.72801 87.1489 10.4513C84.3585 11.4849 83.1184 11.898 81.5687 12.4142C79.8131 12.931 76.2994 14.0675 76.2994 14.0675C83.5322 16.2369 88.6991 16.8572 88.6991 16.8572C88.6991 16.8572 91.0757 16.1345 94.8979 14.0675C96.9643 13.0339 97.8948 12.4142 98.617 11.6909C98.9265 11.4843 99.6505 10.7609 99.7541 9.83101C99.7541 9.72801 99.8571 9.62442 99.8571 9.41725V9.21067C99.7541 9.10767 99.7541 9.00408 99.7541 9.00408C99.7541 9.00408 99.7541 8.7975 99.6499 8.59091C99.6499 8.48733 99.4439 7.97116 99.0301 7.66099C98.7206 7.45382 98.3068 6.93765 96.7565 6.4209C96.2398 6.21373 95.3104 6.00714 95.3104 6.00714L95.2074 6.21489Z" fill="#9CA3AF"/>
<path fill-rule="evenodd" clip-rule="evenodd" d="M99.857 9.31484C99.857 9.31484 99.857 9.10826 99.754 9.00467C99.754 8.79809 99.6498 8.6945 99.5468 8.48791C99.354 8.29937 99.1809 8.09172 99.0301 7.86816C98.8229 7.76458 98.6163 7.55799 98.4103 7.3514C97.3768 6.73106 96.1367 6.42148 94.9996 6.21489C93.2439 6.00831 91.1775 6.00831 90.9703 6.00831C90.3506 6.00831 86.1147 6.00831 85.0818 6.11131C80.3292 6.2149 74.4389 6.21489 72.8892 6.21489C57.0811 6.21489 50.159 5.90473 42.513 4.35505C36.0036 3.11496 32.3875 1.87544 32.3875 1.87544C38.1736 1.66886 71.7527 0.222181 77.8484 0.119181C81.8789 0.0161815 84.6675 -0.0874035 86.9411 0.119181C88.1812 0.119181 89.2147 0.222767 90.5578 0.532937C91.7967 0.739521 92.9344 1.04969 93.5535 1.25628C94.8966 1.77303 96.1367 2.49637 96.6535 3.32271C96.6535 3.32271 96.8606 3.42629 97.0661 3.73588C97.2732 4.14963 97.5828 4.5628 97.687 4.6658C98.5133 6.0089 98.9259 6.73223 99.0301 7.0424C99.2373 7.35257 99.3397 7.66275 99.4438 7.97233C99.6498 8.17892 99.6498 8.3855 99.6498 8.4885C99.754 8.79867 99.754 9.10884 99.857 9.21184V9.31484Z" fill="#9CA3AF"/>
</svg>
