<svg width="138" height="20" viewBox="0 0 138 20" fill="none" xmlns="http://www.w3.org/2000/svg">
<path d="M137.169 16.8613V19.3193H136.757V17.4251H136.73L136.047 19.3193H135.692L135.014 17.4251V19.3193H134.596V16.8613H135.217L135.901 18.7869L136.548 16.8613H137.169ZM134.33 16.8613V17.2161H133.531V19.3191H133.119V17.2161H132.321V16.8613H134.33ZM124.008 13.1926C124.629 11.1834 124.629 9.99889 124.034 9.22643C123.59 8.69417 122.943 8.42803 121.962 8.42803C119.776 8.42803 118.565 9.67007 117.589 12.7802C116.963 14.8206 116.963 16.0051 117.557 16.7726C117.97 17.2786 118.653 17.5449 119.629 17.5449C121.784 17.5449 123.032 16.3291 124.008 13.1926ZM132.556 8.69416C133.411 9.76409 133.594 11.121 133.088 12.7804C131.669 17.3675 126.314 19.9976 118.382 19.9976C113.649 19.9976 110.429 19.0793 109.004 17.3048C108.148 16.2404 108.002 14.8521 108.503 13.1926C109.923 8.60554 115.277 5.97542 123.209 5.97542C127.911 5.97542 131.167 6.91998 132.556 8.69416H132.556ZM102.971 6.4188H111.373C110.867 7.09736 101.729 19.3766 101.578 19.5855H88.6829C88.6204 19.1992 87.081 6.89378 87.0235 6.4188H94.9246C94.9818 6.80503 96.0778 15.6506 96.0778 15.6506C96.0778 15.6506 102.851 6.59631 102.971 6.4188ZM76.9046 13.1926C77.5256 11.1834 77.5571 9.99889 76.9358 9.22643C76.5184 8.69417 75.8402 8.42803 74.8954 8.42803C72.7038 8.42803 71.4617 9.67007 70.5169 12.7802C69.8646 14.8206 69.8646 16.0051 70.4855 16.7726C70.8978 17.2786 71.5816 17.5449 72.526 17.5449C74.718 17.5449 75.96 16.3291 76.9046 13.1926ZM85.4839 8.69416C86.3449 9.76409 86.5225 11.121 85.9901 12.7804C84.5708 17.3675 79.2113 19.9976 71.3155 19.9976C66.5823 19.9976 63.3572 19.0793 61.9325 17.3048C61.0767 16.2404 60.8993 14.8521 61.4004 13.1926C62.8512 8.60554 68.2053 5.97542 76.1062 5.97542C80.8393 5.97542 84.0645 6.91998 85.4839 8.69416ZM60.753 8.04733C61.0766 8.45963 61.2541 8.87167 61.1653 9.46662L57.8829 19.6117H49.1836L52.2627 10.1453C52.3774 9.73301 52.2314 9.37812 51.9965 9.11199C51.5789 8.6058 50.6919 8.28225 47.6443 8.49084C47.6443 8.49084 44.0384 19.4656 43.9756 19.6117H35.2813C35.365 19.3768 39.3623 7.16017 39.4197 7.04008C42.4415 6.50781 46.4335 6.00676 50.577 6.00676C56.1972 6.00689 59.6258 6.68532 60.753 8.04733ZM29.0085 10.8289C29.186 9.99914 28.9199 9.37812 28.6222 9.02324C28.2988 8.6058 27.5837 8.0734 26.107 8.0734C24.0091 8.0734 22.4383 9.08065 21.9059 10.7662L20.8726 14.6436L29.0085 10.8289ZM36.3145 10.7974C36.3145 11.4184 36.1684 11.9508 36.0484 12.1856C35.7822 12.2483 20.6067 15.6195 20.6067 15.6195C20.6067 15.6195 20.4551 16.3607 21.0189 16.7466C21.76 17.279 22.5584 17.4252 23.9153 17.4826C27.2604 17.6288 31.7898 15.677 33.0583 15.1185C32.8548 15.7656 31.55 18.6098 31.4926 18.7559C30.9289 18.9646 27.7926 19.9666 21.6398 19.9979C19.3017 20.0292 15.1322 19.7318 13.4153 17.5712C12.5595 16.5068 12.4083 14.9985 12.9979 13.1042C14.3912 8.57959 19.5995 5.97567 27.229 5.97567C31.4926 5.97567 34.274 6.77407 35.5474 8.33966C36.0484 8.9919 36.3145 9.82164 36.3145 10.7974ZM6.69904 0H15.3098C15.1325 0.558469 9.33469 19.2567 9.24067 19.5855H0.635254C0.812505 19.0219 6.61028 0.323676 6.69904 0Z" fill="#9CA3AF"/>
</svg>
