<svg width="123" height="20" viewBox="0 0 123 20" fill="none" xmlns="http://www.w3.org/2000/svg">
<path fill-rule="evenodd" clip-rule="evenodd" d="M0.856934 0V19.5141H13.8296V15.4116H5.68021V0H0.856934ZM14.5957 5.61139V14.0933C14.5957 14.755 14.6599 15.4187 14.7778 15.9884C14.8958 16.5581 15.0662 17.0338 15.2736 17.4447C15.4804 17.8562 15.7234 18.2017 16.0028 18.4998C16.2821 18.798 16.5971 19.0475 16.9581 19.2549C17.3191 19.4623 17.7274 19.6276 18.2012 19.7416C19.2926 19.997 20.583 19.9905 21.7736 19.6139C22.3374 19.4399 22.8666 19.169 23.3375 18.8135C23.4885 18.6982 23.6078 18.5906 23.716 18.4739L23.9655 19.5271H28.1232V5.61204H23.3278V13.8451C23.3278 14.1153 23.3064 14.3862 23.2675 14.6202C23.228 14.8535 23.1722 15.0512 23.1048 15.221C23.045 15.3753 22.9676 15.5221 22.8741 15.6585C22.7879 15.7816 22.6926 15.8866 22.5883 15.9761C22.4846 16.0662 22.3705 16.1413 22.2454 16.2029C21.9771 16.3364 21.6556 16.3954 21.3303 16.3954C21.1572 16.3954 20.9822 16.3785 20.8254 16.3448C20.6783 16.315 20.5354 16.2669 20.4002 16.2016C20.2755 16.141 20.1588 16.065 20.0528 15.9754C19.9478 15.8853 19.8519 15.781 19.7657 15.6578C19.6795 15.5347 19.6011 15.3921 19.5337 15.2223C19.4581 15.0286 19.4034 14.8274 19.3704 14.6222C19.329 14.3652 19.3086 14.1053 19.3094 13.8451V5.61139H14.5957ZM28.9035 5.57185V8.78716H30.844V19.5141H35.5564V8.78716H38.2727V5.57185H35.5564V5.07281C35.5564 4.89976 35.5661 4.72671 35.5836 4.58866C35.6005 4.45061 35.6238 4.34821 35.651 4.26072C35.7197 4.05721 35.7872 3.90684 36.003 3.73639C36.0581 3.69556 36.1209 3.65732 36.1955 3.62232C36.27 3.58733 36.3581 3.55492 36.4735 3.52381C36.5895 3.49335 36.7321 3.46418 36.9583 3.4428C37.34 3.40326 37.9123 3.40909 38.4114 3.40909V0.0272208H36.9421C36.1611 0.0272208 35.3788 0.0654623 34.8053 0.130274C34.231 0.195086 33.8655 0.283227 33.5648 0.377852C33.264 0.472477 33.0281 0.573587 32.822 0.685711C32.6159 0.797835 32.439 0.919681 32.2802 1.05514C32.1208 1.18995 31.9801 1.33836 31.8505 1.50623C31.7209 1.67409 31.6029 1.86139 31.494 2.07916C31.3851 2.29692 31.286 2.54645 31.1965 2.84588C31.1071 3.14531 31.028 3.49464 30.9665 3.9386C30.893 4.48006 30.8525 5.02548 30.8453 5.57185H28.9035ZM38.8106 5.59972V8.81503H40.6953V14.8302C40.6953 15.3513 40.72 15.873 40.7634 16.2904C40.8068 16.7071 40.8684 17.0182 40.9364 17.2768C41.0045 17.5354 41.0803 17.7428 41.1639 17.9217C41.2469 18.1006 41.3376 18.2522 41.4368 18.3871C41.6308 18.6535 41.8813 18.8737 42.1704 19.0319C42.3253 19.1188 42.5016 19.1966 42.7194 19.2659C42.9378 19.3353 43.1984 19.3981 43.5607 19.4428C43.923 19.4876 44.3883 19.5135 44.8524 19.5135H48.2621V16.2703H47.5971C47.2309 16.2703 46.8641 16.2599 46.6191 16.2424C46.3741 16.2249 46.2516 16.201 46.1544 16.1757C45.9451 16.1174 45.8226 16.0785 45.6651 15.9087C45.5705 15.7933 45.5413 15.7136 45.4998 15.5827C45.4627 15.4501 45.4403 15.3138 45.4331 15.1763C45.4139 14.876 45.4052 14.575 45.4071 14.2741V8.81503H48.0404V5.59972H45.4071V1.16467H40.6947V5.59972H38.8106ZM49.0683 0V19.5141H53.7808V11.587C53.7808 11.2597 53.821 10.9318 53.8988 10.6375C53.9772 10.3433 54.0912 10.0827 54.2325 9.8585C54.3738 9.6349 54.543 9.44759 54.7309 9.29723C55.1068 8.99828 55.5742 8.83785 56.0544 8.8429C56.1957 8.84225 56.3376 8.85327 56.4627 8.87271C56.8282 8.94012 57.1549 9.03604 57.4809 9.46898C57.5412 9.55258 57.5969 9.64786 57.6488 9.76063C57.7006 9.87405 57.7486 10.0043 57.7913 10.1638C57.8335 10.3225 57.8711 10.5099 57.8976 10.7471C57.9242 10.9843 57.9391 11.272 57.9391 11.5592V19.5141H62.6516V10.8663C62.6516 10.2078 62.5893 9.54805 62.4733 8.98613C62.3761 8.4913 62.2135 8.01159 61.9898 7.55963C61.8057 7.18563 61.5674 6.84081 61.2827 6.53625C61.0102 6.24669 60.6955 5.9998 60.3495 5.80388C59.9638 5.58667 59.5488 5.42622 59.1174 5.32752C58.604 5.21049 58.0788 5.15307 57.5522 5.15641C57.2323 5.15331 56.9126 5.17324 56.5956 5.21604C56.2974 5.25687 56.0311 5.3178 55.7757 5.39492C55.5203 5.47205 55.276 5.56602 54.9681 5.75916C54.6603 5.9523 54.2883 6.24525 53.9487 6.56931L53.7821 6.68013V0H49.0683ZM68.8041 10.0763C68.8242 9.88377 68.8586 9.69323 68.8968 9.53574C68.9363 9.37824 68.9804 9.25315 69.0284 9.14622C69.1386 8.87854 69.3628 8.61411 69.5663 8.48449C69.7388 8.37015 69.9298 8.2866 70.1308 8.23756C70.2488 8.20645 70.3816 8.18052 70.5372 8.16238C70.9191 8.11923 71.305 8.1286 71.6844 8.19024C71.8794 8.2246 72.0486 8.27515 72.1944 8.33672C72.3403 8.39764 72.4614 8.46959 72.5626 8.54606C72.965 8.87336 73.0383 9.19482 72.9624 9.56036C72.9242 9.69063 72.851 9.81702 72.6993 9.94859C72.6222 10.0134 72.5256 10.0763 72.3791 10.1553C72.232 10.2338 72.0376 10.329 71.4219 10.4651C70.8068 10.6019 69.7711 10.7788 68.9662 10.9434C68.1612 11.1068 67.5837 11.2571 67.1437 11.3971C66.7016 11.5365 66.3957 11.6661 66.1384 11.7899C65.8805 11.9137 65.6724 12.0316 65.4903 12.1496C65.3082 12.2675 65.1514 12.3849 65.0094 12.5067C63.8622 13.5469 63.7372 14.4971 63.7041 15.5366C63.7015 15.9819 63.7735 16.4265 63.9206 16.8549C64.0677 17.2833 64.2874 17.6949 64.5849 18.0734C64.8977 18.4692 65.2732 18.8112 65.6964 19.0857C66.5701 19.6736 67.7827 19.9873 68.9013 19.9989C69.4568 20.0086 69.9733 19.9523 70.486 19.8447C70.9999 19.7371 71.51 19.577 72.0026 19.3618C72.5353 19.1285 73.0519 18.8362 73.5166 18.4752L73.8497 19.5284H78.0346C77.9422 19.3253 77.8615 19.1172 77.7929 18.9049C77.7371 18.7306 77.7157 18.6094 77.6989 18.4545C77.682 18.2996 77.6749 18.1097 77.6749 17.9211V12.2384C77.6749 11.1884 77.6496 10.1346 77.5848 9.4463C77.5187 8.758 77.4267 8.43459 77.3269 8.15201C77.1397 7.60468 76.8386 7.10325 76.4435 6.68079C76.217 6.43417 75.963 6.21432 75.6865 6.02554C75.3517 5.80063 74.992 5.61532 74.6145 5.47334C74.1919 5.31066 73.6955 5.17067 73.094 5.07281C72.4926 4.97494 71.7848 4.9192 71.1069 4.9205C70.467 4.91904 69.8282 4.97478 69.1982 5.08706C68.6162 5.19465 68.097 5.35279 67.6414 5.54269C67.2217 5.71521 66.8233 5.93551 66.4541 6.19923C66.1329 6.42842 65.8408 6.6959 65.5843 6.99577C65.3425 7.28094 65.1449 7.58491 64.9867 7.90767C64.6575 8.57458 64.5058 9.32575 64.5084 10.0763H68.8041ZM72.9825 15.0966C72.8989 15.3234 72.7751 15.5412 72.6079 15.7382C72.442 15.9365 72.2346 16.1141 71.9929 16.2625C71.7361 16.4168 71.4581 16.5328 71.1678 16.6067C70.6979 16.7246 70.1704 16.7752 69.6337 16.6715C69.4668 16.6381 69.3042 16.5859 69.1489 16.5159C69.0144 16.455 68.8881 16.3772 68.773 16.2846C68.4211 15.9903 68.3174 15.6702 68.3122 15.3617C68.3103 15.2488 68.3183 15.136 68.3362 15.0246C68.379 14.7803 68.4567 14.617 68.6389 14.4374C68.6946 14.3836 68.7614 14.3286 68.8514 14.2709C68.9402 14.2119 69.0517 14.1503 69.2124 14.0725C69.3745 13.9948 69.5858 13.9014 70.243 13.6999C70.8988 13.4977 72.0013 13.1879 73.1076 12.9008V14.3979C73.1072 14.6363 73.0648 14.8728 72.9825 15.0966ZM79.2006 19.5148H83.913V11.3096C83.913 11.0115 83.9396 10.7121 83.9901 10.4567C84.0321 10.233 84.1027 10.0156 84.2001 9.80989C84.2863 9.62906 84.3874 9.47805 84.5015 9.35037C84.6156 9.22269 84.742 9.1177 84.8865 9.03085C85.1704 8.85262 85.569 8.76383 85.9474 8.75994C86.1361 8.75799 86.3084 8.77614 86.4627 8.8092C86.617 8.84225 86.7524 8.88956 86.8755 8.95049C86.998 9.01076 87.1095 9.08335 87.2113 9.17085C87.313 9.25834 87.4038 9.3601 87.4874 9.48129C87.5723 9.60314 87.6468 9.74313 87.7129 9.91164C87.779 10.0802 87.8348 10.2765 87.8724 10.515C87.9119 10.7529 87.9333 11.0316 87.9333 11.3103V19.5154H92.6451V10.5332C92.6451 9.95377 92.5816 9.37371 92.4617 8.85975C92.3549 8.38745 92.1842 7.93194 91.9542 7.50583C91.7515 7.13146 91.4961 6.78813 91.1959 6.48635C90.9052 6.1953 90.5738 5.94795 90.2121 5.75203C89.825 5.54223 89.4112 5.38632 88.9819 5.28863C87.8412 5.03198 86.5366 5.05336 85.3376 5.5414C84.8081 5.75564 84.318 6.05635 83.8871 6.43126C83.7673 6.53317 83.6559 6.64458 83.554 6.76439V5.60037H79.2019V19.5148H79.2006ZM93.3062 14.65C93.2874 14.8451 93.277 14.9676 93.2783 15.1212C93.2822 15.9469 93.4805 16.781 94.0858 17.6015C94.2706 17.8504 94.4909 18.0896 94.7528 18.3171C95.0146 18.5458 95.3199 18.7623 95.6744 18.9619C96.0289 19.1616 96.434 19.3437 96.8922 19.4986C97.3917 19.665 97.9045 19.7884 98.425 19.8674C98.9856 19.9548 99.5974 20.0028 100.247 19.9989C100.902 19.9964 101.556 19.9427 102.202 19.8382C102.759 19.748 103.305 19.6016 103.832 19.4014C104.263 19.2379 104.674 19.0266 105.058 18.7714C105.408 18.5368 105.703 18.2801 105.951 18.006C106.199 17.7318 106.401 17.4402 106.563 17.1291C107.116 16.0441 107.215 14.8321 106.832 13.5599C106.637 12.9679 106.284 12.4407 105.81 12.0355C105.676 11.9189 105.528 11.8061 105.359 11.6953C105.189 11.5844 104.996 11.4736 104.758 11.3582C104.461 11.2146 104.153 11.0935 103.838 10.9959C103.438 10.8696 102.92 10.7354 102.185 10.5896C101.449 10.4437 100.497 10.2876 99.9293 10.1657C99.3622 10.0432 99.18 9.95571 99.042 9.88183C98.9345 9.82692 98.833 9.76088 98.7393 9.6848C98.4289 9.39963 98.4217 9.14557 98.5053 8.85521C98.5585 8.7042 98.6609 8.5493 98.8663 8.40153C98.9603 8.33413 99.0737 8.27256 99.2066 8.22006C99.3564 8.16272 99.5117 8.12081 99.67 8.09497C99.845 8.06516 100.041 8.04766 100.252 8.05155C100.463 8.05479 100.69 8.07877 100.887 8.12414C101.082 8.17015 101.245 8.23885 101.386 8.32376C101.67 8.49448 101.889 8.75456 102.01 9.06326C102.1 9.27195 102.129 9.52407 102.176 9.77035H106.5V9.35427C106.501 8.98948 106.463 8.62564 106.384 8.26932C106.313 7.94462 106.201 7.63033 106.05 7.33408C105.904 7.04829 105.722 6.78235 105.508 6.54273C105.29 6.29904 105.035 6.07479 104.73 5.86934C104.425 5.66389 104.071 5.47788 103.65 5.31715C103.23 5.15577 102.741 5.02031 102.165 4.92633C101.589 4.83236 100.926 4.77921 100.265 4.7805C99.6233 4.78024 98.9826 4.83358 98.3498 4.93994C97.8057 5.03236 97.2723 5.17891 96.7574 5.37742C96.3301 5.54246 95.9225 5.75462 95.5422 6.00998C95.2179 6.22755 94.9213 6.48371 94.6588 6.77282C94.422 7.03332 94.2194 7.32299 94.056 7.63481C93.5343 8.67115 93.4157 9.80341 93.8065 10.9959C93.986 11.4768 94.2725 11.9577 94.8701 12.427C95.0159 12.5404 95.1779 12.6506 95.3724 12.7608C95.5661 12.8709 95.791 12.9811 96.0853 13.103C96.3776 13.2248 96.7373 13.3596 97.4522 13.5197C98.167 13.6798 99.2384 13.8626 99.95 14.0077C100.662 14.1529 101.014 14.2586 101.258 14.348C101.502 14.4387 101.638 14.5126 101.745 14.582C102.264 14.9313 102.288 15.2534 102.242 15.6248C102.205 15.8037 102.132 15.9741 101.959 16.1472C101.906 16.1997 101.844 16.2509 101.771 16.2995C101.69 16.3535 101.605 16.4006 101.516 16.4401C101.406 16.4878 101.293 16.5275 101.177 16.5587C100.86 16.6378 100.535 16.6761 100.209 16.6728C99.9364 16.6734 99.6655 16.6462 99.4302 16.5976C99.1949 16.549 98.9973 16.4784 98.8249 16.3941C98.6525 16.3098 98.506 16.21 98.3803 16.0973C98.2554 15.9857 98.1468 15.8572 98.0575 15.7155C97.8637 15.4103 97.7639 15.0298 97.7412 14.6494H93.3062V14.65ZM112.881 10.0763C112.901 9.88377 112.934 9.69323 112.974 9.53574C113.013 9.37824 113.058 9.25315 113.105 9.14622C113.216 8.87854 113.439 8.61411 113.642 8.48449C113.815 8.3706 114.006 8.28709 114.207 8.23756C114.326 8.20645 114.457 8.18052 114.613 8.16238C114.995 8.11922 115.381 8.12859 115.76 8.19024C115.955 8.2246 116.124 8.27515 116.272 8.33672C116.417 8.39764 116.539 8.46959 116.64 8.54606C117.041 8.87336 117.114 9.19482 117.038 9.56036C117.001 9.69063 116.928 9.81702 116.776 9.94859C116.678 10.0281 116.571 10.0975 116.459 10.156C116.313 10.2344 116.12 10.3297 115.507 10.4671C114.896 10.6038 113.865 10.7834 113.06 10.9486C112.254 11.1139 111.672 11.2649 111.229 11.4055C110.882 11.5125 110.544 11.6447 110.216 11.8009C109.992 11.9075 109.775 12.028 109.567 12.1619C109.399 12.2699 109.238 12.3892 109.086 12.519C107.94 13.556 107.815 14.5016 107.782 15.536C107.779 15.9845 107.852 16.4302 107.998 16.8543C108.144 17.2827 108.364 17.6942 108.661 18.0727C108.959 18.4512 109.332 18.796 109.774 19.0851C110.654 19.6768 111.863 19.9892 112.984 19.9976C113.546 20.0067 114.073 19.9471 114.599 19.8324C115.126 19.7176 115.654 19.5478 116.14 19.3333C116.658 19.1079 117.146 18.8192 117.593 18.4739L117.926 19.5271H122.112C122.021 19.3276 121.939 19.1236 121.868 18.9159C121.82 18.7748 121.789 18.6283 121.775 18.4797C121.758 18.2936 121.75 18.1067 121.751 17.9198V12.2371C121.751 11.1657 121.729 10.0905 121.663 9.39574C121.598 8.70161 121.504 8.38857 121.403 8.11442C121.214 7.5767 120.911 7.08586 120.516 6.67495C120.283 6.42745 120.022 6.2072 119.739 6.01841C119.395 5.79277 119.027 5.60666 118.642 5.46362C118.211 5.30159 117.71 5.16354 117.117 5.06762C116.525 4.9717 115.839 4.91791 115.172 4.9192C114.534 4.91855 113.898 4.97428 113.27 5.08577C112.687 5.19271 112.169 5.34955 111.715 5.53816C111.296 5.70991 110.899 5.92888 110.53 6.19081C110.21 6.41906 109.919 6.68546 109.664 6.9841C109.421 7.26862 109.223 7.57259 109.065 7.89535C108.735 8.56421 108.583 9.32056 108.586 10.0756H112.881V10.0763ZM117.047 15.0966C116.963 15.3234 116.838 15.5412 116.672 15.7382C116.506 15.9365 116.299 16.1141 116.057 16.2625C115.8 16.4168 115.522 16.5328 115.232 16.6067C114.762 16.7246 114.234 16.7752 113.698 16.6715C113.531 16.6382 113.368 16.5861 113.213 16.5159C113.078 16.455 112.952 16.3772 112.837 16.2846C112.496 15.9975 112.38 15.6818 112.376 15.3681C112.375 15.2556 112.384 15.1431 112.4 15.0318C112.444 14.7874 112.524 14.6176 112.713 14.4342C112.771 14.3785 112.84 14.3221 112.933 14.2612C113.026 14.2015 113.14 14.138 113.308 14.0576C113.475 13.9779 113.694 13.882 114.346 13.6824C114.998 13.4828 116.083 13.1807 117.171 12.9008V14.3979C117.171 14.6332 117.13 14.8697 117.047 15.0966Z" fill="#9CA3AF"/>
</svg>
