<svg width="119" height="20" viewBox="0 0 119 20" fill="none" xmlns="http://www.w3.org/2000/svg">
<path fill-rule="evenodd" clip-rule="evenodd" d="M0 20V0H21.2327V20H0ZM33.9372 19.2809L26.0717 0.529486H31.7869L36.7996 12.5802L41.8117 0.529486H47.4528L39.6195 19.2809H33.9372ZM44.7311 19.2879L52.5555 0.504754H58.52L66.4274 19.2879H60.8269L59.8098 16.8979H51.2574L50.298 19.2879H44.7311ZM66.4521 19.2809V0.496511H75.9055C79.3386 0.496511 82.1338 3.0856 82.1338 6.56753C82.1338 8.89981 80.8434 11.1091 78.6848 12.0342L84.8548 19.2809H78.1807L71.572 11.4971V19.2809H66.4521ZM88.52 19.2809V5.72353H83.4249V0.521242H99.0482V5.72353H93.8129V19.2809H88.52ZM96.9391 19.2879L104.764 0.504754H110.727L118.635 19.2879H113.035L112.018 16.8979H103.457L102.506 19.2879H96.9391Z" fill="#9CA3AF"/>
<path fill-rule="evenodd" clip-rule="evenodd" d="M71.572 9.31314H74.4502C75.9461 9.30489 76.9556 8.66 76.9556 7.04681C76.9556 5.42538 75.9461 4.78048 74.4502 4.78048L71.572 4.77224V9.31314ZM0.190918 0.198364L10.4801 16.5668L21.026 0.206608L0.190918 0.198364ZM53.0603 12.5148H57.9816L55.5504 6.63337L53.0603 12.5148ZM105.261 12.5148H110.19L107.759 6.63337L105.261 12.5148Z" fill="white"/>
</svg>
