<svg width="95" height="26" viewBox="0 0 95 26" fill="none" xmlns="http://www.w3.org/2000/svg">
<path fill-rule="evenodd" clip-rule="evenodd" d="M11.4902 25.0186L10.6893 22.4539L13.5736 10.5959H13.7336L16.9387 25.0186H22.2271L21.5862 22.6145L24.7906 8.67326C25.4315 6.26978 25.9123 4.50718 27.9956 4.18644V2.58451H21.266V4.18644C22.067 4.34652 23.6695 4.50718 23.6695 5.94963C23.6695 6.91066 23.1887 8.83392 22.8685 10.1157L20.7852 19.5701H20.6245L16.7786 2.42385L11.811 3.70563L12.7726 8.03237L9.88831 19.4095L6.84393 4.34593L8.44586 4.18585V2.58392H0.273193V4.18585L1.71505 4.34593L6.20186 25.018H11.4902V25.0186ZM32.0022 16.6853C31.8422 16.0438 31.8422 15.5641 31.8422 15.0827C31.8422 13.6409 32.0022 10.756 33.9255 10.756C35.528 10.756 36.0088 12.0378 36.0088 14.1217C36.0088 15.0827 35.528 15.5636 34.4063 15.8831L32.0022 16.6853ZM39.0532 19.8903C38.2522 21.1721 37.4507 22.1343 35.8482 22.1343C33.7648 22.1343 32.8032 20.211 32.3224 18.7692L40.0142 16.0444C39.6935 12.8399 38.4111 9.15407 34.4051 9.15407C29.9183 9.15407 27.6749 13.3207 27.6749 17.3273C27.6749 21.4934 29.7577 25.5 33.9243 25.5C37.1294 25.5 38.892 23.7374 40.1737 21.012L39.0532 19.8903ZM42.2582 2.42326V4.02578C43.0592 4.02578 43.7001 4.02578 43.7001 4.82674V23.4161L42.2582 23.5762V25.018H49.4693V23.5762L47.8668 23.4161V0.5L42.2582 2.42326ZM51.2319 2.42326V4.02578C52.0334 4.02578 52.6737 4.02578 52.6737 4.82674V23.4161L51.2319 23.5762V25.018H58.4435V23.5762L57.0017 23.4161V0.5L51.2319 2.42326ZM64.3722 16.6853V15.0827C64.3722 13.6409 64.5322 10.756 66.4555 10.756C68.058 10.756 68.5388 12.0378 68.5388 14.1217C68.5388 15.0827 67.8974 15.5636 66.7763 15.8831L64.3722 16.6853ZM71.5838 19.8903C70.6216 21.1721 69.8212 22.1343 68.2187 22.1343C66.2954 22.1343 65.3344 20.211 64.8536 18.7692L72.5448 16.0444C72.2241 12.8399 70.7822 9.15407 66.7763 9.15407C62.4489 9.15407 60.0454 13.3207 60.0454 17.3273C60.0454 21.4934 62.1288 25.5 66.2948 25.5C69.4999 25.5 71.2625 23.7374 72.7049 21.012L71.5838 19.8903ZM73.9867 12.6787H74.7883C76.3908 12.6787 76.3908 15.5636 76.3908 16.8453V23.4155L74.9489 23.5756V25.0174H82.1594V23.5756L80.7175 23.4155V20.2104C80.7175 16.0432 81.6797 14.1211 82.32 13.6403C82.8008 13.6403 83.2822 13.8004 84.0826 13.8004C86.0059 13.8004 86.6474 12.6781 86.6474 11.5564C86.6474 9.95445 85.8458 9.15289 84.4034 9.15289C81.8386 9.15289 80.7175 12.518 80.2361 14.2806C80.0766 12.5186 79.7565 10.756 79.115 9.15289L73.9867 11.2362V12.6787ZM91.615 9.95504C93.5371 9.95504 94.9789 8.35252 94.9789 6.42926C94.9789 4.66667 93.5371 3.06415 91.615 3.06415C89.6917 3.06415 88.0892 4.66667 88.0892 6.42926C88.0892 8.35252 89.6917 9.95504 91.615 9.95504ZM91.615 9.15348C90.172 9.15348 89.0503 8.03178 89.0503 6.42926C89.0503 4.98741 90.1714 3.86511 91.615 3.86511C93.0569 3.86511 94.0179 4.98682 94.0179 6.42926C94.0179 8.03178 93.0569 9.15348 91.615 9.15348ZM92.4154 6.75C93.0569 6.75 93.3764 6.42985 93.3764 5.78896C93.3764 4.988 92.8968 4.66726 91.9345 4.66726H90.172V8.35311H90.9735V6.75H91.615L92.4154 8.35252H93.2169L92.4154 6.75ZM90.9735 6.26918V5.14748H91.7739C92.0946 5.14748 92.7361 5.14748 92.7361 5.6283C92.7361 6.10911 92.4154 6.26918 91.9345 6.26918H90.9735Z" fill="#9CA3AF"/>
</svg>
